<svg width="512" height="512" viewBox="0 0 512 512" fill="none" xmlns="http://www.w3.org/2000/svg">
<circle cx="256" cy="256" r="256" fill="white"/>
<path d="M313 216H381.5V228.7H354.3V295.3H340.7V228.7H313V216ZM200 216V228.7H145V249.1H189.3V261.7H145V282.7H200V295.3H131.5V216H200.2H200ZM234.3 216H216.5L280.3 295.4H298.2L266.2 255.7L298.2 216.1H280.3L257.3 244.7L234.3 216.1V216ZM252.6 272.7L243.6 261.7L216.5 295.4H234.3L252.6 272.7Z" fill="#0F172A"/>
<path d="M132 295.3L68 216H51V295.3H64.6V233L114.8 295.3H132ZM384.6 294.9C383.6 294.9 382.8 294.5 382.1 293.9C381.4 293.3 381 292.3 381 291.3C381 290.3 381.3 289.5 382 288.8C382.7 288.1 383.6 287.8 384.6 287.8C385.6 287.8 386.4 288.1 387.1 288.8C387.686 289.334 388.066 290.057 388.176 290.842C388.285 291.627 388.117 292.426 387.7 293.1C387.387 293.624 386.95 294.063 386.426 294.377C385.903 294.691 385.31 294.871 384.7 294.9H384.6ZM407.8 261.4H413.8V284.7C413.8 286.8 413.4 288.7 412.5 290.2C411.598 291.709 410.278 292.925 408.7 293.7C407.1 294.5 405.2 295 403 295C401 295 399.3 294.6 397.7 294C396.1 293.4 394.9 292.2 394 290.8C393.1 289.5 392.6 287.8 392.6 285.8H398.6C398.7 286.6 398.9 287.4 399.3 288C399.7 288.6 400.3 289.2 400.9 289.5C401.6 289.9 402.4 290 403.3 290C404.3 290 405.1 289.8 405.7 289.4C406.406 288.979 406.964 288.35 407.3 287.6C407.6 286.8 407.8 285.8 407.8 284.6V261.5V261.4ZM438.7 270.5C438.639 269.834 438.428 269.191 438.081 268.619C437.735 268.047 437.262 267.562 436.7 267.2C435.41 266.408 433.911 266.024 432.4 266.1C431.1 266.1 430 266.3 429.1 266.6C428.2 267 427.5 267.6 427.1 268.2C426.646 268.756 426.374 269.437 426.32 270.153C426.266 270.868 426.434 271.583 426.8 272.2C427.1 272.7 427.5 273.1 428.1 273.4L429.9 274.4L431.9 274.9L435.1 275.7C436.4 276 437.6 276.4 438.8 276.9C439.946 277.346 441.024 277.952 442 278.7C442.965 279.481 443.737 280.474 444.257 281.601C444.777 282.728 445.031 283.959 445 285.2C445 287.2 444.5 288.9 443.5 290.3C442.398 291.863 440.871 293.078 439.1 293.8C437.3 294.6 435 295 432.3 295C429.7 295 427.4 294.6 425.5 293.8C423.5 293 422.1 291.8 421 290.3C419.888 288.645 419.296 286.694 419.3 284.7H425.3C425.335 285.735 425.691 286.733 426.318 287.557C426.945 288.381 427.812 288.99 428.8 289.3C429.8 289.7 431 289.9 432.2 289.9C433.5 289.9 434.7 289.7 435.7 289.3C436.7 288.9 437.5 288.3 438.1 287.6C438.619 286.908 438.9 286.065 438.9 285.2C438.9 284.3 438.7 283.6 438.2 283C437.556 282.454 436.851 281.985 436.1 281.6L432.9 280.6L429.1 279.6C426.3 278.9 424.1 277.9 422.5 276.4C421.702 275.688 421.072 274.807 420.657 273.821C420.242 272.835 420.051 271.769 420.1 270.7C420.084 268.889 420.684 267.126 421.8 265.7C422.875 264.151 424.365 262.938 426.1 262.2C428.1 261.4 430.1 261 432.5 261C434.8 261 436.9 261.4 438.7 262.2C440.5 263 441.9 264.2 443 265.6C444 267 444.5 268.6 444.5 270.6H438.7V270.5Z" fill="#0F172A"/>
</svg>
